<?xml version="1.0" standalone="no"?>
<!DOCTYPE svg PUBLIC "-//W3C//DTD SVG 20010904//EN"
 "http://www.w3.org/TR/2001/REC-SVG-20010904/DTD/svg10.dtd">
<svg version="1.0" xmlns="http://www.w3.org/2000/svg"
 width="512.000000pt" height="512.000000pt" viewBox="0 0 512.000000 512.000000"
 preserveAspectRatio="xMidYMid meet">

<g transform="translate(0.000000,512.000000) scale(0.100000,-0.100000)"
fill="#000000" stroke="none">
<path d="M1915 4865 c-166 -36 -329 -160 -398 -302 l-20 -41 -127 -4 c-126 -3
-127 -3 -212 -45 -182 -91 -275 -247 -306 -513 l-7 -64 -42 -8 c-126 -21 -256
-132 -328 -281 -77 -161 -76 -148 -73 -1017 4 -761 4 -765 26 -840 113 -372
454 -617 991 -710 155 -27 397 -43 536 -36 l120 7 22 -92 c62 -260 231 -466
475 -578 153 -70 304 -96 481 -80 156 13 338 68 389 118 51 49 1449 1826 1454
1849 9 33 -4 70 -29 83 -12 7 -60 14 -107 15 -87 3 -197 31 -238 59 -21 15
-22 21 -16 98 7 99 -11 188 -57 279 -111 219 -422 314 -649 198 l-40 -20 0
227 c0 269 -13 485 -36 585 -46 211 -223 425 -437 527 -93 45 -211 78 -310 88
l-67 6 -33 61 c-38 73 -166 205 -252 261 -233 153 -499 216 -710 170z m328
-165 c109 -27 190 -63 281 -124 195 -130 298 -306 283 -485 -23 -273 -274
-466 -707 -543 -116 -20 -472 -17 -585 5 -257 52 -428 144 -485 262 -37 77
-21 254 32 359 32 62 113 141 171 167 36 16 78 24 138 27 l86 4 6 -61 c7 -84
48 -155 117 -203 200 -141 628 -123 748 32 55 71 53 167 -5 231 -44 49 -96 66
-147 49 -20 -6 -41 -20 -46 -30 -27 -50 5 -120 55 -120 33 0 32 -23 -1 -49
-44 -34 -119 -51 -230 -51 -253 0 -361 74 -333 226 14 75 48 134 113 200 128
127 291 160 509 104z m822 -505 c77 -20 194 -75 258 -122 l49 -36 -4 -111 c-8
-169 -48 -254 -203 -422 -69 -76 -69 -76 -77 -148 -4 -39 -7 -169 -7 -289 -1
-239 -5 -257 -61 -291 -83 -48 -180 14 -180 116 0 65 -16 111 -52 145 -70 67
-131 69 -283 10 -60 -24 -158 -61 -217 -81 -244 -86 -288 -149 -288 -408 0
-84 -4 -117 -16 -138 -34 -56 -108 -76 -163 -44 -49 29 -56 49 -61 199 -6 153
-23 210 -78 268 -41 44 -66 53 -222 81 -407 75 -633 136 -739 201 -58 35 -130
104 -150 142 -25 49 -3 191 45 284 52 104 162 189 243 189 32 0 40 -6 70 -51
96 -141 298 -246 566 -295 149 -27 497 -25 655 4 293 54 494 145 636 290 115
118 164 235 172 410 5 129 0 124 107 97z m500 -456 c25 -111 35 -284 35 -620
l0 -316 -720 -707 c-652 -641 -722 -713 -749 -769 -16 -34 -32 -78 -36 -98
-12 -67 -3 -64 -242 -63 -510 1 -887 122 -1110 357 -77 81 -120 149 -155 247
-23 65 -23 65 -26 668 l-3 604 33 -25 c52 -39 145 -82 253 -117 94 -30 474
-114 631 -140 112 -18 118 -27 124 -208 6 -172 21 -215 97 -282 105 -92 261
-92 366 0 77 68 91 109 97 292 7 185 10 191 119 232 201 77 367 136 382 136
13 0 17 -13 21 -63 6 -74 42 -152 89 -191 63 -53 108 -70 189 -70 64 0 83 4
128 29 59 32 91 65 125 129 21 39 22 55 25 316 l3 275 48 50 c115 120 184 236
217 363 16 62 20 70 31 56 6 -9 19 -47 28 -85z m579 -910 c74 -27 147 -95 176
-161 31 -73 38 -192 13 -234 -10 -18 -247 -314 -528 -658 l-509 -627 -16 58
c-26 95 -61 154 -136 229 -114 113 -263 181 -429 193 l-79 6 584 572 c322 315
596 581 610 590 76 54 218 68 314 32z m311 -589 c41 -25 140 -60 172 -60 12 0
23 -5 23 -11 0 -6 -295 -384 -657 -841 -726 -920 -658 -845 -823 -889 -116
-31 -290 -31 -403 -1 -193 53 -367 190 -455 358 -80 155 -94 318 -38 441 33
71 63 104 140 155 118 77 267 99 398 58 120 -37 124 -22 -62 -231 -90 -101
-174 -196 -188 -211 -69 -75 28 -232 201 -325 68 -36 77 -38 162 -38 78 0 97
4 147 28 33 16 77 50 105 81 26 29 314 380 638 779 325 400 594 727 599 727 5
0 23 -9 41 -20z m-1360 -1004 c83 -171 25 -380 -118 -426 -67 -21 -158 11
-228 81 l-39 39 167 189 c123 138 171 186 180 179 7 -6 24 -33 38 -62z"/>
</g>
</svg>
